<svg width="439" height="420" viewBox="0 0 439 420" fill="none" xmlns="http://www.w3.org/2000/svg">
<g filter="url(#filter0_dii_12_45)">
<path fill-rule="evenodd" clip-rule="evenodd" d="M172.847 125.787L219.249 31.7675L265.65 125.787C272.205 139.068 284.875 148.274 299.532 150.404L403.289 165.48L357.103 210.501L357.059 210.5L357 210.5H312C307.858 210.5 304.5 213.858 304.5 218C304.5 221.516 306.92 224.467 310.185 225.279H377.758L427.994 176.311C439.864 164.74 433.314 144.581 416.91 142.197L303.127 125.664C296.613 124.717 290.982 120.626 288.068 114.723L237.183 11.6184C229.847 -3.24648 208.65 -3.24653 201.314 11.6184L150.429 114.723C147.516 120.626 141.884 124.717 135.37 125.664L21.5878 142.197C5.1834 144.581 -1.36683 164.74 10.5035 176.311L92.8372 256.567C97.551 261.161 99.7019 267.781 98.5892 274.269L79.1528 387.592C76.3506 403.93 93.4992 416.389 108.172 408.675L209.942 355.172C215.768 352.108 222.729 352.108 228.556 355.172L330.326 408.675C344.998 416.389 362.147 403.93 359.345 387.592L339.908 274.269C339.386 271.227 339.582 268.156 340.423 265.279H314.971C314.425 269.622 314.509 274.072 315.268 278.495L332.992 381.833L240.189 333.043C227.079 326.151 211.418 326.151 198.308 333.043L105.506 381.833L123.229 278.495C125.733 263.898 120.893 249.003 110.288 238.664L35.2086 165.48L138.965 150.404C153.622 148.274 166.293 139.068 172.847 125.787ZM367.499 235.279L357.24 245.279H266.451C264.168 244.61 262.5 242.5 262.5 240C262.5 236.962 264.962 234.5 268 234.5H285.568C286.342 234.993 287.262 235.279 288.249 235.279H367.499ZM186.752 206.287C189.775 208.037 194.249 207.773 194.249 204.279C194.249 195.995 187.533 189.279 179.249 189.279C170.964 189.279 164.249 195.995 164.249 204.279C164.249 207.773 168.722 208.037 171.746 206.287C173.953 205.01 176.515 204.279 179.249 204.279C181.982 204.279 184.544 205.01 186.752 206.287ZM266.752 206.287C269.775 208.037 274.249 207.773 274.249 204.279C274.249 195.995 267.533 189.279 259.249 189.279C250.964 189.279 244.249 195.995 244.249 204.279C244.249 207.773 248.722 208.037 251.746 206.287C253.953 205.01 256.515 204.279 259.249 204.279C261.982 204.279 264.544 205.01 266.752 206.287ZM178.786 266.771L181.718 258.55L185.266 259.816C185.876 260.033 186.367 260.344 186.739 260.748C187.11 261.152 187.346 261.618 187.444 262.145C187.543 262.671 187.488 263.226 187.28 263.81C187.07 264.398 186.757 264.861 186.341 265.199C185.928 265.537 185.445 265.738 184.891 265.803C184.339 265.869 183.751 265.79 183.124 265.567L181.888 265.126L181.018 267.566L178.786 266.771ZM183.293 263.673L182.507 263.392L183.314 261.128L184.101 261.409C184.363 261.503 184.57 261.628 184.722 261.785C184.878 261.94 184.975 262.119 185.014 262.323C185.057 262.525 185.036 262.744 184.952 262.979C184.869 263.212 184.746 263.396 184.583 263.531C184.423 263.667 184.233 263.748 184.012 263.775C183.795 263.8 183.555 263.766 183.293 263.673ZM191.044 270.816L193.543 271.356L194.389 269.83L197.202 270.438L197.342 272.178L199.841 272.718L198.87 263.579L195.704 262.894L191.044 270.816ZM197.054 268.592L196.812 265.593L196.746 265.579L195.287 268.21L197.054 268.592ZM206.855 264.998L209.798 265.189L211.502 270.253L211.604 270.259L213.948 265.458L216.891 265.649L216.326 274.358L214.012 274.208L214.339 269.173L214.271 269.169L212.01 274.01L210.615 273.919L209 268.792L208.932 268.788L208.603 273.857L206.29 273.707L206.855 264.998ZM231.202 271.723C231.523 271.027 231.643 270.194 231.562 269.226C231.481 268.258 231.225 267.458 230.793 266.827C230.361 266.193 229.811 265.733 229.143 265.447C228.474 265.158 227.747 265.046 226.959 265.112C226.167 265.178 225.465 265.409 224.854 265.805C224.245 266.198 223.78 266.743 223.459 267.44C223.141 268.133 223.022 268.964 223.103 269.932C223.183 270.895 223.438 271.693 223.868 272.327C224.299 272.958 224.848 273.42 225.514 273.712C226.183 274.001 226.913 274.113 227.706 274.047C228.493 273.981 229.192 273.751 229.803 273.358C230.415 272.962 230.881 272.417 231.202 271.723ZM228.815 268.13C228.984 268.475 229.09 268.908 229.133 269.429C229.177 269.95 229.144 270.396 229.035 270.767C228.929 271.135 228.75 271.424 228.496 271.633C228.245 271.839 227.925 271.959 227.534 271.991C227.143 272.024 226.806 271.959 226.522 271.798C226.24 271.633 226.015 271.378 225.846 271.033C225.68 270.685 225.576 270.25 225.532 269.73C225.489 269.209 225.52 268.764 225.626 268.396C225.735 268.025 225.914 267.736 226.165 267.53C226.418 267.321 226.74 267.2 227.131 267.167C227.522 267.134 227.858 267.2 228.14 267.365C228.424 267.527 228.649 267.781 228.815 268.13ZM241.761 262.92L244.075 262.409L245.281 267.868C245.425 268.517 245.394 269.113 245.188 269.656C244.984 270.196 244.635 270.655 244.14 271.035C243.645 271.413 243.032 271.682 242.302 271.843C241.567 272.006 240.896 272.02 240.287 271.887C239.678 271.751 239.167 271.482 238.755 271.078C238.345 270.671 238.069 270.143 237.925 269.494L236.718 264.035L239.032 263.524L240.194 268.783C240.253 269.047 240.363 269.269 240.525 269.452C240.687 269.631 240.884 269.757 241.115 269.828C241.349 269.898 241.597 269.904 241.861 269.846C242.127 269.787 242.35 269.677 242.53 269.515C242.709 269.353 242.834 269.157 242.906 268.926C242.976 268.692 242.982 268.443 242.924 268.18L241.761 262.92ZM254.246 261.33C254.479 261.415 254.654 261.588 254.77 261.848L256.906 261.087C256.711 260.55 256.41 260.128 256.002 259.821C255.596 259.511 255.111 259.331 254.547 259.281C253.984 259.232 253.37 259.326 252.706 259.562C252.056 259.794 251.519 260.11 251.094 260.508C250.672 260.906 250.389 261.352 250.246 261.847C250.104 262.338 250.128 262.844 250.316 263.365C250.543 264.008 250.931 264.441 251.481 264.664C252.033 264.883 252.701 264.942 253.485 264.84L254.367 264.725C254.696 264.683 254.964 264.669 255.171 264.683C255.376 264.694 255.535 264.733 255.647 264.802C255.761 264.867 255.842 264.962 255.889 265.087C255.934 265.222 255.934 265.356 255.888 265.49C255.842 265.624 255.75 265.749 255.61 265.865C255.471 265.981 255.282 266.082 255.044 266.167C254.76 266.268 254.5 266.311 254.262 266.296C254.027 266.28 253.823 266.207 253.65 266.076C253.476 265.945 253.338 265.756 253.235 265.509L251.115 266.265C251.363 266.951 251.712 267.463 252.161 267.801C252.612 268.135 253.14 268.313 253.745 268.335C254.353 268.357 255.014 268.24 255.729 267.985C256.424 267.737 256.985 267.427 257.41 267.055C257.838 266.683 258.119 266.261 258.253 265.791C258.387 265.321 258.359 264.815 258.169 264.274C258.055 263.962 257.901 263.691 257.707 263.461C257.516 263.231 257.28 263.046 256.999 262.909C256.717 262.768 256.385 262.676 256.005 262.634C255.625 262.592 255.191 262.603 254.701 262.669L253.975 262.765C253.766 262.795 253.581 262.809 253.421 262.809C253.261 262.809 253.125 262.794 253.012 262.765C252.898 262.733 252.806 262.686 252.735 262.624C252.666 262.558 252.617 262.475 252.587 262.374C252.547 262.252 252.545 262.132 252.581 262.014C252.617 261.896 252.698 261.784 252.823 261.679C252.95 261.57 253.129 261.475 253.359 261.393C253.72 261.264 254.016 261.243 254.246 261.33Z" fill="url(#paint0_linear_12_45)"/>
</g>
<defs>
<filter id="filter0_dii_12_45" x="0.441895" y="0.469727" width="437.614" height="418.547" filterUnits="userSpaceOnUse" color-interpolation-filters="sRGB">
<feFlood flood-opacity="0" result="BackgroundImageFix"/>
<feColorMatrix in="SourceAlpha" type="matrix" values="0 0 0 0 0 0 0 0 0 0 0 0 0 0 0 0 0 0 127 0" result="hardAlpha"/>
<feOffset dy="4"/>
<feGaussianBlur stdDeviation="2"/>
<feComposite in2="hardAlpha" operator="out"/>
<feColorMatrix type="matrix" values="0 0 0 0 0 0 0 0 0 0 0 0 0 0 0 0 0 0 0.25 0"/>
<feBlend mode="normal" in2="BackgroundImageFix" result="effect1_dropShadow_12_45"/>
<feBlend mode="normal" in="SourceGraphic" in2="effect1_dropShadow_12_45" result="shape"/>
<feColorMatrix in="SourceAlpha" type="matrix" values="0 0 0 0 0 0 0 0 0 0 0 0 0 0 0 0 0 0 127 0" result="hardAlpha"/>
<feOffset dy="4"/>
<feGaussianBlur stdDeviation="2"/>
<feComposite in2="hardAlpha" operator="arithmetic" k2="-1" k3="1"/>
<feColorMatrix type="matrix" values="0 0 0 0 0 0 0 0 0 0 0 0 0 0 0 0 0 0 0.25 0"/>
<feBlend mode="normal" in2="shape" result="effect2_innerShadow_12_45"/>
<feColorMatrix in="SourceAlpha" type="matrix" values="0 0 0 0 0 0 0 0 0 0 0 0 0 0 0 0 0 0 127 0" result="hardAlpha"/>
<feOffset dy="4"/>
<feGaussianBlur stdDeviation="2"/>
<feComposite in2="hardAlpha" operator="arithmetic" k2="-1" k3="1"/>
<feColorMatrix type="matrix" values="0 0 0 0 0 0 0 0 0 0 0 0 0 0 0 0 0 0 0.25 0"/>
<feBlend mode="normal" in2="effect2_innerShadow_12_45" result="effect3_innerShadow_12_45"/>
</filter>
<linearGradient id="paint0_linear_12_45" x1="23" y1="20" x2="415" y2="395" gradientUnits="userSpaceOnUse">
<stop stop-color="#00FFF0"/>
<stop offset="0.25" stop-color="#00F2E3"/>
<stop offset="0.5" stop-color="#0075FF"/>
<stop offset="0.75" stop-color="#FF004D"/>
<stop offset="1" stop-color="#FFC700"/>
</linearGradient>
</defs>
</svg>
