<svg width="393" height="376" viewBox="0 0 393 376" fill="none" xmlns="http://www.w3.org/2000/svg">
<path fill-rule="evenodd" clip-rule="evenodd" d="M215.27 13.8197C209.283 -4.60654 183.215 -4.60657 177.228 13.8196L144.611 114.205C141.933 122.445 134.254 128.024 125.589 128.024H20.0384C0.663892 128.024 -7.39165 152.817 8.28262 164.205L93.6753 226.246C100.685 231.339 103.618 240.366 100.941 248.607L68.3236 348.992C62.3366 367.418 83.4261 382.741 99.1004 371.353L184.493 309.311C191.503 304.218 200.995 304.218 208.004 309.311L293.397 371.353C309.071 382.741 330.161 367.418 324.174 348.992L291.557 248.607C291.2 247.508 290.942 246.395 290.781 245.279H235.335C235.347 244.959 235.292 244.624 235.169 244.274C235.055 243.962 234.901 243.691 234.708 243.461C234.517 243.231 234.281 243.046 233.999 242.908C233.717 242.768 233.386 242.676 233.005 242.634C232.625 242.592 232.191 242.603 231.701 242.669L230.976 242.765C230.766 242.795 230.581 242.809 230.421 242.809C230.261 242.809 230.125 242.794 230.012 242.765C229.898 242.733 229.806 242.686 229.735 242.624C229.667 242.558 229.617 242.475 229.587 242.374C229.547 242.252 229.545 242.132 229.581 242.014C229.617 241.895 229.698 241.784 229.823 241.679C229.951 241.57 230.129 241.475 230.359 241.392C230.721 241.264 231.016 241.243 231.246 241.329C231.479 241.415 231.654 241.588 231.771 241.848L233.906 241.087C233.711 240.55 233.41 240.128 233.002 239.821C232.596 239.511 232.111 239.331 231.547 239.281C230.984 239.232 230.37 239.326 229.707 239.562C229.056 239.794 228.519 240.109 228.094 240.508C227.672 240.906 227.389 241.352 227.246 241.847C227.104 242.338 227.128 242.844 227.317 243.364C227.543 244.008 227.931 244.441 228.481 244.664C229.033 244.883 229.701 244.942 230.485 244.84L231.367 244.725C231.696 244.683 231.964 244.669 232.171 244.683C232.377 244.694 232.536 244.733 232.648 244.802C232.761 244.867 232.842 244.962 232.889 245.087C232.911 245.151 232.922 245.215 232.923 245.279H228.249C222.726 245.279 218.249 240.802 218.249 235.279C218.249 229.756 222.726 225.279 228.249 225.279H300.154L313.918 215.279H265.249C262.487 215.279 260.249 213.04 260.249 210.279C260.249 207.517 262.487 205.279 265.249 205.279H327.681L384.215 164.205C399.889 152.817 391.834 128.024 372.459 128.024H266.908C258.244 128.024 250.565 122.445 247.887 114.205L215.27 13.8197ZM232.923 245.279C232.924 245.349 232.912 245.42 232.888 245.49C232.843 245.624 232.75 245.749 232.61 245.865C232.471 245.981 232.282 246.082 232.044 246.166C231.76 246.268 231.5 246.311 231.262 246.296C231.027 246.28 230.823 246.207 230.65 246.076C230.476 245.944 230.338 245.755 230.235 245.509L228.116 246.265C228.364 246.951 228.712 247.463 229.161 247.801C229.612 248.135 230.14 248.313 230.745 248.335C231.353 248.357 232.014 248.24 232.729 247.985C233.425 247.737 233.985 247.427 234.41 247.055C234.838 246.682 235.119 246.261 235.253 245.791C235.301 245.625 235.328 245.454 235.335 245.279H232.923ZM163.752 186.287C166.776 188.037 171.249 187.773 171.249 184.279C171.249 175.995 164.533 169.279 156.249 169.279C147.964 169.279 141.249 175.995 141.249 184.279C141.249 187.773 145.722 188.037 148.746 186.287C150.953 185.01 153.515 184.279 156.249 184.279C158.982 184.279 161.545 185.01 163.752 186.287ZM243.752 186.287C246.776 188.037 251.249 187.773 251.249 184.279C251.249 175.995 244.533 169.279 236.249 169.279C227.964 169.279 221.249 175.995 221.249 184.279C221.249 187.773 225.722 188.037 228.746 186.287C230.953 185.01 233.515 184.279 236.249 184.279C238.982 184.279 241.545 185.01 243.752 186.287ZM155.786 246.77L158.718 238.55L162.266 239.816C162.876 240.033 163.367 240.344 163.739 240.748C164.111 241.152 164.346 241.618 164.444 242.144C164.543 242.671 164.488 243.226 164.28 243.81C164.07 244.398 163.757 244.861 163.342 245.199C162.928 245.537 162.445 245.738 161.891 245.803C161.339 245.869 160.751 245.79 160.125 245.567L158.888 245.126L158.018 247.566L155.786 246.77ZM160.293 243.673L159.507 243.392L160.314 241.128L161.101 241.409C161.363 241.502 161.57 241.628 161.722 241.784C161.878 241.94 161.976 242.119 162.015 242.323C162.057 242.525 162.036 242.744 161.952 242.979C161.869 243.212 161.746 243.396 161.584 243.531C161.424 243.667 161.233 243.748 161.012 243.775C160.795 243.8 160.556 243.766 160.293 243.673ZM168.044 250.816L170.543 251.356L171.389 249.83L174.202 250.438L174.342 252.177L176.841 252.718L175.87 243.579L172.705 242.894L168.044 250.816ZM174.054 248.592L173.813 245.593L173.746 245.579L172.287 248.21L174.054 248.592ZM183.855 244.998L186.798 245.189L188.502 250.253L188.604 250.259L190.948 245.458L193.891 245.649L193.326 254.358L191.012 254.208L191.339 249.173L191.271 249.169L189.01 254.009L187.615 253.919L186 248.792L185.932 248.788L185.603 253.857L183.29 253.707L183.855 244.998ZM208.202 251.723C208.523 251.026 208.643 250.194 208.562 249.226C208.482 248.258 208.225 247.458 207.793 246.827C207.361 246.193 206.811 245.733 206.143 245.447C205.474 245.158 204.747 245.046 203.96 245.112C203.167 245.178 202.465 245.409 201.854 245.805C201.245 246.198 200.78 246.743 200.459 247.439C200.141 248.133 200.022 248.964 200.103 249.932C200.184 250.895 200.438 251.693 200.868 252.327C201.3 252.958 201.848 253.42 202.514 253.712C203.183 254.001 203.913 254.113 204.706 254.046C205.493 253.981 206.192 253.751 206.804 253.358C207.415 252.962 207.881 252.417 208.202 251.723ZM205.815 248.13C205.984 248.475 206.09 248.908 206.133 249.429C206.177 249.95 206.144 250.396 206.036 250.767C205.93 251.135 205.75 251.423 205.496 251.633C205.246 251.839 204.925 251.958 204.534 251.991C204.144 252.024 203.806 251.959 203.522 251.798C203.24 251.633 203.015 251.378 202.846 251.033C202.681 250.685 202.576 250.25 202.532 249.729C202.489 249.209 202.52 248.764 202.626 248.396C202.735 248.025 202.915 247.736 203.165 247.53C203.419 247.321 203.741 247.2 204.131 247.167C204.522 247.134 204.858 247.2 205.14 247.365C205.424 247.527 205.649 247.781 205.815 248.13ZM218.761 242.92L221.075 242.409L222.282 247.868C222.425 248.517 222.394 249.113 222.188 249.656C221.985 250.196 221.635 250.655 221.14 251.035C220.645 251.413 220.032 251.682 219.303 251.843C218.568 252.006 217.896 252.02 217.287 251.887C216.678 251.751 216.168 251.482 215.756 251.078C215.346 250.671 215.069 250.143 214.925 249.494L213.718 244.035L216.032 243.524L217.195 248.783C217.253 249.046 217.363 249.269 217.526 249.452C217.688 249.631 217.884 249.756 218.115 249.828C218.349 249.898 218.598 249.904 218.861 249.846C219.127 249.787 219.35 249.677 219.53 249.515C219.709 249.353 219.835 249.156 219.906 248.925C219.976 248.692 219.982 248.443 219.924 248.179L218.761 242.92Z" fill="url(#paint0_linear_12_326)"/>
<defs>
<linearGradient id="paint0_linear_12_326" x1="0" y1="0" x2="392" y2="375" gradientUnits="userSpaceOnUse">
<stop stop-color="#00FFF0"/>
<stop offset="0.25" stop-color="#00F2E3"/>
<stop offset="0.5" stop-color="#0075FF"/>
<stop offset="0.75" stop-color="#FF004D"/>
<stop offset="1" stop-color="#FFC700"/>
</linearGradient>
</defs>
</svg>
