<svg width="416" height="398" viewBox="0 0 416 398" fill="none" xmlns="http://www.w3.org/2000/svg">
<g filter="url(#filter0_di_12_326)">
<path fill-rule="evenodd" clip-rule="evenodd" d="M235.151 16.7882C224.147 -5.50913 192.351 -5.50918 181.347 16.7882L141.756 97.0083C137.386 105.863 128.939 112 119.168 113.42L30.6398 126.283C6.03314 129.859 -3.79219 160.098 14.0133 177.454L78.0729 239.897C85.1435 246.789 88.3699 256.719 86.7008 266.451L71.5784 354.621C67.3751 379.128 93.098 397.817 115.107 386.246L194.289 344.618C203.028 340.023 213.469 340.023 222.209 344.618L301.391 386.246C323.4 397.817 349.123 379.128 344.92 354.621L329.797 266.451C328.973 261.645 329.343 256.791 330.779 252.279H279.267C273.744 252.279 269.267 247.802 269.267 242.279C269.267 236.756 273.744 232.279 279.267 232.279H346.24L356.499 222.279H316.267C313.505 222.279 311.267 220.04 311.267 217.279C311.267 214.517 313.505 212.279 316.267 212.279H366.758L402.485 177.454C420.29 160.098 410.465 129.859 385.858 126.283L297.33 113.42C287.559 112 279.112 105.863 274.742 97.0083L235.151 16.7882ZM175.752 193.287C178.776 195.037 183.249 194.773 183.249 191.279C183.249 182.995 176.533 176.279 168.249 176.279C159.965 176.279 153.249 182.995 153.249 191.279C153.249 194.773 157.722 195.037 160.746 193.287C162.953 192.01 165.516 191.279 168.249 191.279C170.982 191.279 173.545 192.01 175.752 193.287ZM255.752 193.287C258.776 195.037 263.249 194.773 263.249 191.279C263.249 182.995 256.533 176.279 248.249 176.279C239.965 176.279 233.249 182.995 233.249 191.279C233.249 194.773 237.722 195.037 240.746 193.287C242.953 192.01 245.516 191.279 248.249 191.279C250.982 191.279 253.545 192.01 255.752 193.287ZM167.786 253.77L170.718 245.55L174.266 246.816C174.876 247.033 175.367 247.344 175.739 247.748C176.111 248.152 176.346 248.618 176.444 249.144C176.543 249.671 176.488 250.226 176.28 250.81C176.07 251.398 175.758 251.861 175.342 252.199C174.928 252.537 174.445 252.738 173.891 252.803C173.34 252.869 172.751 252.79 172.125 252.567L170.888 252.126L170.018 254.566L167.786 253.77ZM172.294 250.673L171.507 250.392L172.314 248.128L173.101 248.409C173.363 248.502 173.57 248.628 173.723 248.784C173.878 248.94 173.976 249.119 174.015 249.323C174.057 249.525 174.036 249.744 173.952 249.979C173.869 250.212 173.747 250.396 173.584 250.531C173.424 250.667 173.233 250.748 173.013 250.775C172.795 250.8 172.556 250.766 172.294 250.673ZM180.044 257.816L182.544 258.356L183.39 256.83L186.202 257.438L186.342 259.177L188.841 259.718L187.87 250.579L184.705 249.894L180.044 257.816ZM186.054 255.592L185.813 252.593L185.746 252.579L184.287 255.21L186.054 255.592ZM195.855 251.998L198.798 252.189L200.502 257.253L200.604 257.259L202.948 252.458L205.891 252.649L205.326 261.358L203.013 261.208L203.339 256.173L203.271 256.169L201.01 261.009L199.615 260.919L198.001 255.792L197.932 255.788L197.604 260.857L195.29 260.707L195.855 251.998ZM220.202 258.723C220.523 258.026 220.643 257.194 220.563 256.226C220.482 255.258 220.225 254.458 219.793 253.827C219.361 253.193 218.811 252.733 218.143 252.447C217.475 252.158 216.747 252.046 215.96 252.112C215.167 252.178 214.465 252.409 213.854 252.805C213.245 253.198 212.781 253.743 212.46 254.44C212.141 255.133 212.022 255.964 212.103 256.932C212.184 257.895 212.439 258.693 212.868 259.327C213.3 259.958 213.849 260.42 214.514 260.712C215.183 261.001 215.913 261.113 216.706 261.046C217.493 260.981 218.192 260.751 218.804 260.358C219.415 259.962 219.881 259.417 220.202 258.723ZM217.815 255.13C217.984 255.475 218.09 255.908 218.133 256.429C218.177 256.95 218.144 257.396 218.036 257.767C217.93 258.135 217.75 258.423 217.497 258.633C217.246 258.839 216.925 258.958 216.534 258.991C216.144 259.024 215.806 258.959 215.522 258.798C215.24 258.633 215.015 258.378 214.847 258.033C214.681 257.685 214.576 257.25 214.532 256.729C214.489 256.209 214.52 255.764 214.626 255.396C214.735 255.025 214.915 254.736 215.165 254.53C215.419 254.321 215.741 254.2 216.131 254.167C216.522 254.134 216.858 254.2 217.14 254.365C217.424 254.527 217.65 254.781 217.815 255.13ZM230.761 249.92L233.075 249.409L234.282 254.868C234.425 255.517 234.394 256.113 234.188 256.656C233.985 257.196 233.635 257.655 233.14 258.035C232.645 258.413 232.032 258.682 231.303 258.843C230.568 259.006 229.896 259.02 229.287 258.887C228.678 258.751 228.168 258.482 227.756 258.078C227.346 257.671 227.069 257.143 226.925 256.494L225.718 251.035L228.032 250.524L229.195 255.783C229.253 256.046 229.363 256.269 229.526 256.452C229.688 256.631 229.884 256.757 230.115 256.828C230.349 256.898 230.598 256.904 230.861 256.846C231.127 256.787 231.35 256.677 231.53 256.515C231.709 256.353 231.835 256.156 231.906 255.925C231.976 255.692 231.982 255.443 231.924 255.179L230.761 249.92ZM243.246 248.33C243.479 248.415 243.654 248.588 243.771 248.848L245.906 248.087C245.712 247.55 245.41 247.128 245.002 246.821C244.596 246.511 244.111 246.331 243.547 246.281C242.984 246.232 242.37 246.326 241.707 246.562C241.056 246.794 240.519 247.11 240.094 247.508C239.672 247.906 239.389 248.352 239.246 248.847C239.104 249.338 239.128 249.844 239.317 250.364C239.543 251.008 239.931 251.441 240.481 251.664C241.033 251.883 241.701 251.942 242.485 251.84L243.367 251.725C243.696 251.683 243.964 251.669 244.171 251.683C244.377 251.694 244.536 251.733 244.648 251.802C244.761 251.867 244.842 251.962 244.89 252.087C244.935 252.222 244.934 252.356 244.889 252.49C244.843 252.624 244.75 252.749 244.611 252.865C244.471 252.981 244.282 253.082 244.044 253.167C243.76 253.268 243.5 253.311 243.262 253.296C243.027 253.28 242.823 253.207 242.65 253.076C242.476 252.944 242.338 252.755 242.235 252.509L240.116 253.265C240.364 253.951 240.712 254.463 241.161 254.801C241.612 255.135 242.14 255.313 242.745 255.335C243.353 255.357 244.014 255.24 244.729 254.985C245.425 254.737 245.985 254.427 246.411 254.055C246.839 253.682 247.12 253.261 247.254 252.791C247.388 252.321 247.359 251.815 247.169 251.274C247.055 250.962 246.901 250.691 246.708 250.461C246.517 250.231 246.281 250.046 245.999 249.908C245.717 249.768 245.386 249.676 245.006 249.634C244.625 249.592 244.191 249.603 243.702 249.669L242.976 249.765C242.766 249.795 242.581 249.809 242.421 249.809C242.261 249.809 242.125 249.794 242.012 249.765C241.898 249.733 241.806 249.686 241.735 249.624C241.667 249.558 241.617 249.475 241.587 249.374C241.547 249.252 241.545 249.132 241.581 249.014C241.617 248.895 241.698 248.784 241.824 248.679C241.951 248.57 242.129 248.475 242.359 248.392C242.721 248.264 243.016 248.243 243.246 248.33Z" fill="url(#paint0_linear_12_326)"/>
</g>
<defs>
<filter id="filter0_di_12_326" x="0.920898" y="0.0651855" width="414.656" height="397.694" filterUnits="userSpaceOnUse" color-interpolation-filters="sRGB">
<feFlood flood-opacity="0" result="BackgroundImageFix"/>
<feColorMatrix in="SourceAlpha" type="matrix" values="0 0 0 0 0 0 0 0 0 0 0 0 0 0 0 0 0 0 127 0" result="hardAlpha"/>
<feOffset dy="4"/>
<feGaussianBlur stdDeviation="2"/>
<feComposite in2="hardAlpha" operator="out"/>
<feColorMatrix type="matrix" values="0 0 0 0 0 0 0 0 0 0 0 0 0 0 0 0 0 0 0.25 0"/>
<feBlend mode="normal" in2="BackgroundImageFix" result="effect1_dropShadow_12_326"/>
<feBlend mode="normal" in="SourceGraphic" in2="effect1_dropShadow_12_326" result="shape"/>
<feColorMatrix in="SourceAlpha" type="matrix" values="0 0 0 0 0 0 0 0 0 0 0 0 0 0 0 0 0 0 127 0" result="hardAlpha"/>
<feOffset dy="4"/>
<feGaussianBlur stdDeviation="2"/>
<feComposite in2="hardAlpha" operator="arithmetic" k2="-1" k3="1"/>
<feColorMatrix type="matrix" values="0 0 0 0 0 0 0 0 0 0 0 0 0 0 0 0 0 0 0.25 0"/>
<feBlend mode="normal" in2="shape" result="effect2_innerShadow_12_326"/>
</filter>
<linearGradient id="paint0_linear_12_326" x1="12" y1="7" x2="404" y2="382" gradientUnits="userSpaceOnUse">
<stop stop-color="#00FFF0"/>
<stop offset="0.25" stop-color="#00F2E3"/>
<stop offset="0.5" stop-color="#0075FF"/>
<stop offset="0.75" stop-color="#FF004D"/>
<stop offset="1" stop-color="#FFC700"/>
</linearGradient>
</defs>
</svg>
